<svg xmlns="http://www.w3.org/2000/svg" viewBox="0 0 512 512"><g data-name="Compass"><path d="m169.786 343.57 111.134-61.292 61.286-111.132-111.13 61.29zm71.022-87.474 16.376 16.489-36.602 20.19zm30.463 2.364-16.302-16.418 36.442-20.097z"/><path d="M256 88.64c-92.282 0-167.36 75.078-167.36 167.36S163.717 423.36 256 423.36 423.36 348.283 423.36 256C423.358 163.718 348.279 88.64 256 88.64zm9.975 314.396v-30.189h-19.95v30.188a147.58 147.58 0 0 1-137.063-137.06h30.19v-19.95h-30.19a147.578 147.578 0 0 1 137.063-137.06v30.192h19.95v-30.19a147.573 147.573 0 0 1 137.056 137.058h-30.19v19.95h30.19a147.577 147.577 0 0 1-137.056 137.06z"/></g></svg>