<svg xmlns="http://www.w3.org/2000/svg" xml:space="preserve" width="2048" height="2048" style="shape-rendering:geometricPrecision;text-rendering:geometricPrecision;image-rendering:optimizeQuality;fill-rule:evenodd;clip-rule:evenodd"><defs><style>.fil0{fill:#424242}</style></defs><g id="Layer_x0020_1"><g id="_324609512"><path id="_324609584" class="fil0" d="M312.254 536.658H559.95v112.75H312.254v-112.75zm-56.255 161.003h1536V488.405H256v209.256zm352.204-48.253v-112.75H855.9v112.75H608.203zm295.95 0v-112.75h247.696v112.75H904.152zm295.95 0v-112.75h247.695v112.75h-247.696zm295.948 0v-112.75h247.696v112.75h-247.696z"/><path id="_324609536" class="fil0" d="M312.254 1398.59H559.95v112.75H312.254v-112.75zm-56.255 161.003h1536v-209.256H256v209.256zm352.204-48.253v-112.75H855.9v112.75H608.203zm295.95 0v-112.75h247.696v112.75H904.152zm295.95 0v-112.75h247.695v112.75h-247.696zm295.948 0v-112.75h247.696v112.75h-247.696z"/><path id="_324609200" class="fil0" d="M255.999 729.661h1536v588.68h-1536v-588.68zm943.599 294.34L848.4 1261.248V786.753l351.198 237.248z"/></g></g><path style="fill:none" d="M0 0h2048v2048H0z"/></svg>