<svg xmlns="http://www.w3.org/2000/svg" width="128" height="128" xml:space="preserve"><path fill="#282D33" d="M69.936 70.211H45.3c-11.413 0-20.698-9.354-20.698-20.853S33.887 28.506 45.3 28.506h24.638l-.002 41.705zM45.3 32.506c-9.207 0-16.698 7.56-16.698 16.853S36.093 66.211 45.3 66.211h20.636V32.506H45.3z"/><path fill="#282D33" d="M128 55.873H68.271v-4H124V32.506H66.95v-4H128z"/><path fill="#282D33" d="M106.527 69.683H66.95v-4h35.577V56.49H68.271v-4h38.256zM118.096 22.069h4v9.924h-4zM26.51 26.578l6.957 7.02-2.84 2.815-6.958-7.019zM41.333 31.061h4v20.714h-4zM53.042 105.931H4.025l-.493-1.281A52.866 52.866 0 0 1 0 85.573c0-19.367 10.27-36.846 26.801-45.612l1.874 3.534C13.455 51.566 4 67.69 4 85.573c0 5.62.938 11.116 2.791 16.357h39.743a49.355 49.355 0 0 1-4.216-19.966c0-4.779.679-9.497 2.018-14.024l3.836 1.135a45.414 45.414 0 0 0-1.854 12.89c0 7.345 1.79 14.618 5.176 21.032l1.548 2.934z"/><path fill="#282D33" d="M54.307 84.903H44.81v-4h9.497c6.425 0 11.652-5.278 11.652-11.767h4c0 8.694-7.021 15.767-15.652 15.767zM29.2 93.278h-.129v-4h.129v4zm-4.129 0h-4v-4h4v4zm-8 0h-4v-4h4v4z"/></svg>