<svg xmlns="http://www.w3.org/2000/svg" width="128" height="128" xml:space="preserve"><path fill="#282D33" d="m118.075 82.54-.052-4.01c2.302-.028 5.566-2.167 5.562-4.126V37.077c-.002-2.608-1.975-5.64-4.14-6.357-10.238-3.314-21.076-3.314-31.328.004-2.152.713-4.124 3.743-4.126 6.354v37.321h-4.009V37.077c.003-4.349 3.092-8.908 6.888-10.164 11.073-3.582 22.767-3.582 33.824-.004 3.808 1.264 6.897 5.822 6.9 10.167v37.323c.013 4.821-5.721 8.093-9.519 8.141zM41.001 82.516l-1.315-3.788 9.312-3.235-9.654-30.435 3.822-1.212L54 78.001zM65.304 82.935c-4.935 0-8.948-4.038-8.948-9.001 0-4.964 4.014-9.002 8.948-9.002s8.948 4.038 8.948 9.002c0 4.962-4.015 9.001-8.948 9.001zm0-13.994c-2.724 0-4.939 2.239-4.939 4.992s2.215 4.991 4.939 4.991 4.938-2.238 4.938-4.991-2.215-4.992-4.938-4.992zM76.255 111.096H53.133V86.193h23.122v24.903zm-19.112-4.01h15.103V90.202H57.143v16.884z"/><path fill="#282D33" d="m48.555 76.39 8.065 10.594-3.19 2.428-8.065-10.595zM80.831 76.386l3.192 2.427-8.06 10.598-3.193-2.428zM57.198 108.682h4.01v17.614h-4.01zM68.18 108.682h4.01v17.614h-4.01zM31.222 128H17.375l-2.304-21.612 3.987-.425 1.922 18.027h6.637l1.923-18.027 3.986.425zM101.781 86.12h4.01v39.879h-4.01z"/><path fill="#282D33" d="M118.483 125.544H89.096V42.809h4.008v78.725h21.37V42.809h4.009z"/><path fill="#282D33" d="M101.781 86.12h4.01v39.879h-4.01zM5.787 78.736c-.812-2.73-1.714-5.734-2.616-8.738-.896-2.98-1.791-5.96-2.596-8.669l-.17-.571L5.422 43.88c1.091-3.498 4.152-8.112 7.208-9.511 4.296-1.886 7.993-2.759 11.665-2.761 3.681.002 7.377.875 11.645 2.747 3.082 1.406 6.144 6.021 7.229 9.499l-3.827 1.194c-.954-3.058-3.537-6.348-5.04-7.033-3.716-1.63-6.901-2.396-9.998-2.397-3.105.002-6.292.768-10.034 2.409-1.475.676-4.06 3.967-5.012 7.021l-4.67 15.709c.76 2.551 1.591 5.318 2.423 8.088.903 3.007 1.807 6.015 2.619 8.747l-3.843 1.144z"/><path fill="#282D33" d="M47.105 101.975H1.494L12.803 46.1l3.93.794L6.397 97.965h35.806l-10.337-51.07 3.93-.796zM103.79 28.04c-7.681 0-13.931-6.289-13.931-14.02S96.109 0 103.79 0s13.93 6.289 13.93 14.021c0 7.73-6.249 14.019-13.93 14.019zm0-24.031c-5.47 0-9.921 4.491-9.921 10.012 0 5.52 4.451 10.01 9.921 10.01s9.92-4.49 9.92-10.01c0-5.521-4.45-10.012-9.92-10.012z"/><g><path fill="#282D33" d="M24.302 34.799c-7.345 0-13.321-6.014-13.321-13.405S16.957 7.988 24.302 7.988c7.343 0 13.317 6.014 13.317 13.405s-5.974 13.406-13.317 13.406zm0-22.802c-5.134 0-9.312 4.215-9.312 9.396 0 5.181 4.178 9.396 9.312 9.396 5.132 0 9.307-4.216 9.307-9.396 0-5.181-4.175-9.396-9.307-9.396z"/></g></svg>