<svg version="1.1" id="Layer_1" xmlns="http://www.w3.org/2000/svg" x="0" y="0" viewBox="0 0 32 32" style="enable-background:new 0 0 32 32" xml:space="preserve"><style></style><path d="M15.857 25.571a1 1 0 0 1-1-1V4a1.001 1.001 0 0 1 1.23-.973c.81.19 7.913 1.98 7.913 5.992 0 1.455-.398 2.553-1.184 3.264a3.02 3.02 0 0 1-2.205.764 1 1 0 0 1 .2-1.99c-.005-.001.376.015.68-.273.333-.316.509-.926.509-1.765 0-1.588-2.95-2.984-5.143-3.697v19.25a1 1 0 0 1-1 1z"/><path d="M12.429 29C9.986 29 8 27.013 8 24.571s1.986-4.428 4.429-4.428 4.428 1.986 4.428 4.428S14.871 29 12.43 29zm0-6.857A2.431 2.431 0 0 0 10 24.571C10 25.911 11.09 27 12.429 27s2.428-1.09 2.428-2.429a2.431 2.431 0 0 0-2.428-2.428z"/></svg>