<svg id="Layer_1" data-name="Layer 1" xmlns="http://www.w3.org/2000/svg" viewBox="0 0 64 64"><defs><style>.cls-1{fill:none;stroke:#000;stroke-linecap:round;stroke-linejoin:round;stroke-width:2px}</style></defs><g id="Line"><path class="cls-1" d="M9 40.3h9v16.76a3.54 3.54 0 0 1-3.54 3.54h-1.93A3.54 3.54 0 0 1 9 57.06V40.3h0z" transform="rotate(45 13.468 50.438)"/><path class="cls-1" transform="rotate(-45 26.786 37.145)" d="M23.88 32.66h5.81v8.96h-5.81z"/><path class="cls-1" d="M48.67 16.25a2.13 2.13 0 0 1-1.05 2.15c-.71.33-1.67.1-2.19.69a2 2 0 0 0-.43 1.09 1.67 1.67 0 0 1-.49 1c-.33.24-.88.17-1-.21-1.27 1.28-1.12 3.47-.14 5 .1.15.22.32.34.47l-5.42 5.44-6.29-6.3 15.32-15.31a8.92 8.92 0 0 0 .62 3.56 9 9 0 0 1 .73 2.42z"/><rect class="cls-1" x="15.65" y="38.3" width="13.98" height="5.77" rx="1.98" transform="rotate(45 22.643 41.18)"/><path class="cls-1" d="M55.55 14.7 43.76 26.49a5.36 5.36 0 0 1-.34-.49c-1-1.53-1.13-3.72.13-5 .09.37.66.45 1 .21a1.53 1.53 0 0 0 .49-1 2.17 2.17 0 0 1 .42-1.09c.52-.58 1.48-.36 2.19-.69a2.14 2.14 0 0 0 1.05-2.14 8.5 8.5 0 0 0-.73-2.43 8.94 8.94 0 0 1-.62-3.57l1.9-1.9 5-1.84 2.25-.84h0l2.75-1-.8 2.14-1 2.86z"/><path class="cls-1" d="M49.58 40.3h1.89A3.54 3.54 0 0 1 55 43.83v16.76h0-9 0V43.83a3.54 3.54 0 0 1 3.58-3.53z" transform="rotate(135 50.531 50.443)"/><path class="cls-1" d="m42.44 36-6.33 6.34-15.87-15.86c.13-.15.23-.32.34-.47 1-1.54 1.13-3.73-.13-5-.09.38-.66.45-1 .21a1.62 1.62 0 0 1-.49-1 2.22 2.22 0 0 0-.41-1.09c-.54-.59-1.49-.36-2.21-.69a2.16 2.16 0 0 1-1-2.15 9 9 0 0 1 .72-2.42 9.3 9.3 0 0 0 .64-3.56z"/><path class="cls-1" d="m46.79 39.83-.27.27-6.34 6.33-.18.17a2.19 2.19 0 0 1-3.12 0l-1-1a2.22 2.22 0 0 1 0-3.11l.18-.17L42.44 36l.26-.26a2.22 2.22 0 0 1 3.13 0l1 1a2.23 2.23 0 0 1-.04 3.09zM20.58 26c-.11.15-.21.32-.34.47L8.45 14.7l-1.85-5-1-2.85-.84-2.17 2.75 1h0l2.25.83 5 1.85 1.91 1.91a9.3 9.3 0 0 1-.64 3.56 9 9 0 0 0-.72 2.42 2.16 2.16 0 0 0 1 2.15c.72.33 1.67.1 2.21.69a2.22 2.22 0 0 1 .48 1.09 1.62 1.62 0 0 0 .49 1c.31.24.88.17 1-.21 1.22 1.31 1.07 3.5.09 5.03z"/></g></svg>