<svg xmlns="http://www.w3.org/2000/svg" xml:space="preserve" width="2048" height="2048" style="shape-rendering:geometricPrecision;text-rendering:geometricPrecision;image-rendering:optimizeQuality;fill-rule:evenodd;clip-rule:evenodd"><defs><style>.fil1{fill:#424242;fill-rule:nonzero}</style></defs><g id="Layer_x0020_1"><g id="_476533752"><path id="_476533656" d="M866.805 1222.39h314.196l-.191-380.307 36.087 48.588a233.66 233.66 0 0 1 27.833 48.8c11.95 28.444 17.997 58.884 17.997 89.73v136.898c0 16.374 6.624 31.741 18.256 43.196 11.657 11.478 27.212 17.872 43.578 17.872 16.366 0 31.922-6.394 43.581-17.873 11.633-11.454 18.254-26.82 18.254-43.194v-136.9c0-53.01-11.631-109.166-30.155-158.833-16.718-44.826-41.96-91.562-76.321-125.354-35.713-35.12-77.764-54.846-126.377-64.61-45.649-9.168-92.91-8.816-139.27-7.596l-2.691.07c-90.233 2.376-174.898 4.67-243.502 72.135-34.362 33.793-59.602 80.528-76.32 125.353-18.524 49.668-30.155 105.822-30.155 158.835v136.9c0 16.373 6.623 31.74 18.255 43.195 11.656 11.478 27.212 17.872 43.578 17.872 16.365 0 31.923-6.395 43.58-17.873 11.632-11.454 18.254-26.82 18.254-43.194v-136.9c0-30.845 6.047-61.285 17.998-89.729a233.743 233.743 0 0 1 27.789-48.74l36.123-48.67-.377 380.329zm314.234 30H866.73l-.507 500.643c.917 14.435 7.01 27.96 17.317 38.265 11.21 11.211 26.23 17.437 42.087 17.437 15.86 0 30.876-6.227 42.09-17.439 11.21-11.211 17.438-26.23 17.438-42.087v-401.685l77.212-.083v401.768c0 15.859 6.225 30.878 17.436 42.09 11.211 11.21 26.233 17.436 42.09 17.436 15.86 0 30.877-6.226 42.09-17.439 10.298-10.298 16.391-23.81 17.315-38.232l-.259-500.673z" style="fill:#424242"/><path id="_476533560" class="fil1" d="M926.62 431.463c4.417-17.052-5.824-34.458-22.876-38.875-17.051-4.417-34.457 5.824-38.874 22.876-3.719 14.209-5.484 28.166-5.484 41.642 0 36.902 12.587 71.878 34.164 99.983 21.598 28.13 52.268 49.398 88.407 58.855 13.519 3.539 27.526 5.436 41.802 5.436s28.282-1.897 41.801-5.436c36.14-9.457 66.81-30.725 88.407-58.855 21.579-28.106 34.166-63.08 34.166-99.983 0-13.476-1.768-27.435-5.485-41.642-4.417-17.052-21.823-27.293-38.875-22.876-17.052 4.418-27.293 21.823-22.876 38.875 2.191 8.376 3.234 16.985 3.234 25.643 0 22.609-7.705 44.03-20.913 61.233-13.19 17.178-31.809 30.138-53.657 35.855-7.92 2.073-16.55 3.184-25.802 3.184-9.253 0-17.882-1.111-25.803-3.184-21.848-5.717-40.467-18.677-53.656-35.855-13.207-17.203-20.912-38.623-20.912-61.233 0-8.656 1.041-17.267 3.232-25.643z"/><path id="_476533440" class="fil1" d="M1342.21 1251.73c0-8.836-7.165-16-16-16-8.836 0-16 7.164-16 16v173.438c0 8.836 7.164 16 16 16 8.835 0 16-7.164 16-16V1251.73z"/><path id="_476533536" class="fil1" d="M1358.21 1251.73c0-17.673-14.328-32-32-32-17.674 0-32.002 14.327-32.002 32v35.937c0 17.673 14.328 32.001 32.001 32.001s32.001-14.328 32.001-32v-35.938z"/><path id="_476533776" class="fil1" d="M850.931 1266.9c4.003-17.19-9.811-19.997-27.001-24s-31.247-7.689-35.25 9.5l-12.013 139.825c-3.116 13.382 5.205 26.758 18.587 29.873 13.38 3.116 26.756-5.205 29.872-18.585l25.805-136.612z"/><path id="_476534016" class="fil1" d="M1180.01 432.463c15.325-8.698 20.698-28.175 12-43.5l-75.932-133.449.063-.076c-6.482-11.39-18.902-17.283-31.15-16.005l-128.649 1.936-.106-.12c-12.778.192-23.693 7.85-28.657 18.757l-72.194 129.208c-8.56 15.394-3.019 34.815 12.376 43.375.333.185 312.148-.068 312.249-.126z"/><path id="_476533968" class="fil1" d="M816.829 364.866c-12.85-4.354-26.8 2.533-31.153 15.385-4.353 12.85 2.534 26.8 15.385 31.153 70.857 24.185 145.928 36.446 221.613 36.446 74.88 0 150.62-12.04 223.73-36.446 12.85-4.3 19.781-18.207 15.481-31.057-4.302-12.852-18.207-19.781-31.058-15.48-67.708 22.602-138.183 33.753-208.153 33.753-70.494 0-140.223-11.355-205.845-33.754z"/></g></g><path style="fill:none" d="M0 0h2048v2048H0z"/></svg>